2.8Hzlow3min_grf.mot
version=1
nRows=25
nColumns 19
inDegrees=yes
endheader
time	1_ground_force_vx	1_ground_force_vy	1_ground_force_vz	1_ground_force_px	1_ground_force_py	1_ground_force_pz	1_ground_torque_x	1_ground_torque_y	1_ground_torque_z	2_ground_force_vx	2_ground_force_vy	2_ground_force_vz	2_ground_force_px	2_ground_force_py	2_ground_force_pz	2_ground_torque_x	2_ground_torque_y	2_ground_torque_z
            2.502500	           -9.692041	          661.894587	          -30.063448	           -0.179624	            0.006422	           -0.449452	           -0.012124	            0.827958	           -0.037606	          -15.442800	          544.532496	           38.271671	           -0.195043	            0.005708	           -0.677555	            0.047756	           -1.683952	           -0.118354
            2.503000	           -9.923334	          667.664814	          -30.450851	           -0.179861	            0.006420	           -0.449034	           -0.010254	            0.689928	           -0.031466	          -15.696906	          550.055446	           38.479195	           -0.195318	            0.005709	           -0.678133	            0.047325	           -1.658374	           -0.116012
            2.503500	          -10.153973	          672.352721	          -30.659461	           -0.179993	            0.006420	           -0.449038	           -0.011304	            0.748529	           -0.034133	          -15.798376	          552.263244	           38.956401	           -0.195154	            0.005708	           -0.677734	            0.048089	           -1.681052	           -0.118581
            2.504000	          -10.063679	          676.860394	          -30.869648	           -0.179915	            0.006420	           -0.449014	           -0.013650	            0.918039	           -0.041869	          -15.713836	          554.840381	           39.294056	           -0.195283	            0.005707	           -0.677576	            0.049627	           -1.752264	           -0.124096
            2.504500	          -10.523369	          680.646776	          -31.081554	           -0.179984	            0.006421	           -0.449167	           -0.016215	            1.048756	           -0.047891	          -15.447338	          558.892568	           39.355320	           -0.195385	            0.005706	           -0.677466	            0.048093	           -1.740045	           -0.122528
            2.505000	          -10.753227	          684.792738	          -31.017354	           -0.180014	            0.006421	           -0.449144	           -0.018006	            1.146683	           -0.051938	          -15.552192	          562.021511	           39.695027	           -0.195581	            0.005705	           -0.677464	            0.049968	           -1.805740	           -0.127538
            2.505500	          -10.662963	          688.219149	          -31.323883	           -0.180060	            0.006422	           -0.449424	           -0.016895	            1.090458	           -0.049632	          -15.187863	          564.967898	           40.080805	           -0.195665	            0.005704	           -0.677315	            0.050033	           -1.861176	           -0.132038
            2.506000	          -10.755945	          693.447456	          -31.438811	           -0.180229	            0.006420	           -0.448995	           -0.015824	            1.020196	           -0.046253	          -15.155573	          569.018905	           40.236025	           -0.195652	            0.005706	           -0.677799	            0.051548	           -1.935365	           -0.136852
            2.506500	          -10.895256	          697.595279	          -31.833391	           -0.180261	            0.006420	           -0.449051	           -0.015182	            0.972042	           -0.044357	          -15.404321	          573.068272	           40.532148	           -0.195756	            0.005706	           -0.677854	            0.049876	           -1.855482	           -0.131235
            2.507000	          -10.941091	          701.920270	          -31.493739	           -0.180293	            0.006420	           -0.449042	           -0.016451	            1.055408	           -0.047354	          -15.228761	          576.382599	           40.825464	           -0.195796	            0.005705	           -0.677577	            0.050218	           -1.900682	           -0.134626
            2.507500	          -11.080956	          706.609646	          -32.069424	           -0.180458	            0.006418	           -0.448671	           -0.018399	            1.173283	           -0.053249	          -15.185796	          577.486897	           41.064027	           -0.195761	            0.005704	           -0.677191	            0.051271	           -1.949724	           -0.138641
            2.508000	          -11.219614	          709.675149	          -32.285225	           -0.180397	            0.006420	           -0.449122	           -0.020308	            1.284519	           -0.058437	          -14.969306	          582.458219	           41.504021	           -0.195911	            0.005705	           -0.677594	            0.049968	           -1.944256	           -0.138541
            2.508500	          -11.083003	          713.461179	          -32.361046	           -0.180377	            0.006421	           -0.449178	           -0.020990	            1.351211	           -0.061288	          -14.983140	          586.324352	           41.799388	           -0.196053	            0.005705	           -0.677886	            0.049905	           -1.952886	           -0.139222
            2.509000	          -11.496185	          717.967378	          -32.248986	           -0.180485	            0.006419	           -0.448788	           -0.018788	            1.173345	           -0.052703	          -14.615693	          588.351649	           41.712600	           -0.196069	            0.005704	           -0.677558	            0.051605	           -2.077329	           -0.147277
            2.509500	          -11.544166	          721.575238	          -32.829536	           -0.180472	            0.006420	           -0.449025	           -0.017481	            1.092669	           -0.049713	          -14.395941	          592.402708	           42.008524	           -0.196155	            0.005704	           -0.677803	            0.050820	           -2.091266	           -0.148296
            2.510000	          -11.544776	          725.540826	          -32.766679	           -0.180526	            0.006419	           -0.448895	           -0.017921	            1.126290	           -0.050865	          -14.548228	          595.715014	           42.536620	           -0.196321	            0.005704	           -0.677818	            0.051404	           -2.104870	           -0.150297
            2.510500	          -11.455082	          728.968220	          -33.302492	           -0.180681	            0.006420	           -0.449050	           -0.020341	            1.294417	           -0.059135	          -14.653206	          598.845083	           42.594758	           -0.196198	            0.005705	           -0.677912	            0.051012	           -2.084757	           -0.148285
            2.511000	          -11.593676	          732.934689	          -33.422709	           -0.180581	            0.006419	           -0.448857	           -0.022402	            1.416223	           -0.064581	          -14.571387	          602.159407	           42.794258	           -0.196305	            0.005704	           -0.677898	            0.049824	           -2.058981	           -0.146328
            2.511500	          -11.594823	          736.721085	          -33.589900	           -0.180695	            0.006419	           -0.448740	           -0.023532	            1.495226	           -0.068173	          -14.488115	          605.104444	           43.274012	           -0.196410	            0.005703	           -0.677786	            0.050672	           -2.116337	           -0.151350
            2.512000	          -11.824924	          740.326748	          -33.665584	           -0.180835	            0.006419	           -0.448793	           -0.024793	            1.552246	           -0.070587	          -14.497379	          607.682201	           43.377067	           -0.196493	            0.005703	           -0.677672	            0.052036	           -2.181156	           -0.155693
            2.512500	          -12.055024	          743.932410	          -33.741267	           -0.180935	            0.006419	           -0.448892	           -0.023198	            1.431579	           -0.064930	          -14.602980	          610.996016	           43.529718	           -0.196696	            0.005703	           -0.677968	            0.050367	           -2.107398	           -0.150139
            2.513000	          -12.102482	          745.917456	          -34.237070	           -0.180987	            0.006421	           -0.449283	           -0.020808	            1.282468	           -0.058864	          -14.141504	          613.020973	           44.193740	           -0.196520	            0.005702	           -0.677439	            0.051405	           -2.228345	           -0.160645
            2.513500	          -12.332016	          750.783571	          -33.986348	           -0.181110	            0.006419	           -0.448814	           -0.022220	            1.352797	           -0.061238	          -14.340805	          616.334449	           44.346431	           -0.196890	            0.005701	           -0.677637	            0.053009	           -2.278201	           -0.163921
            2.514000	          -12.379541	          754.390645	          -34.383482	           -0.180882	            0.006419	           -0.448711	           -0.024006	            1.462871	           -0.066674	          -14.352707	          619.648601	           44.499042	           -0.196956	            0.005702	           -0.677926	            0.053237	           -2.298406	           -0.165056
            2.514500	          -12.287894	          757.093831	          -34.188692	           -0.180976	            0.006419	           -0.448757	           -0.027387	            1.687405	           -0.076200	          -14.129550	          622.778348	           44.979394	           -0.196913	            0.005702	           -0.677804	            0.053595	           -2.362283	           -0.170613
